<svg xmlns="http://www.w3.org/2000/svg" viewBox="0 0 512 512">
  <title>CSS3 Logo Badge</title>
  <path fill="#1572B6" d="M71,460 L30,0 481,0 440,460 255,512"/>
  <path fill="#33A9DC" d="M256,472 L405,431 440,37 256,37"/>
  <path fill="#EBEBEB" d="M256,150 256,94 114,94 119,150zM196,265 L256,265 256,208 191,208zM256,355 L255,355 192,338 188,293 158,293 132,293 139,382 255,414 256,414z"/>
  <path fill="#FFF" d="M255,208 L255,265 325,265 318,338 255,355 255,414 371,382 372,372 385,223 397,94 255,94 255,150 337,150 332,208z"/>
</svg>
