<?xml version="1.0" encoding="UTF-8" standalone="no"?>
<svg	xmlns="http://www.w3.org/2000/svg"
	version="1.0" width="1200" height="1200" overflow="scroll">
<title>LaTeX logo</title>
<g transform="matrix(45,0,0,45,40,40)" fill="black">
	<path transform="translate(0,0.17)" d="M5.46,14.23 c0,0 -0.25,0 -0.25,0 c-0.0999999,1.02 -0.24,2.26 -2,2.26 c0,0 -0.81,0 -0.81,0 c-0.47,0 -0.49,-0.0699997 -0.49,-0.4 c0,0 0,-5.31 0,-5.31 c0,-0.34 0,-0.48 0.94,-0.48 c0,0 0.33,0 0.33,0 c0,0 0,-0.3 0,-0.3 c-0.36,0.03 -1.26,0.03 -1.67,0.03 c-0.39,0 -1.17,0 -1.51,-0.03 c0,0 0,0.3 0,0.3 c0,0 0.23,0 0.23,0 c0.77,0 0.79,0.11 0.79,0.47 c0,0 0,5.25 0,5.25 c0,0.36 -0.02,0.47 -0.79,0.47 c0,0 -0.23,0 -0.23,0 c0,0 0,0.31 0,0.31 c0,0 5.19,0 5.19,0 c0,0 0.27,-2.57 0.27,-2.57 z"/>
	<path transform="translate(2.48)" d="M2.81,10.16 c-0.04,-0.12 -0.0599999,-0.16 -0.19,-0.16 c-0.13,0 -0.16,0.04 -0.2,0.16 c0,0 -1.61,4.08 -1.61,4.08 c-0.07,0.17 -0.19,0.48 -0.81,0.48 c0,0 0,0.25 0,0.25 c0,0 1.55,0 1.55,0 c0,0 0,-0.25 0,-0.25 c-0.31,0 -0.5,-0.14 -0.5,-0.34 c0,-0.0500002 0.00999999,-0.0700002 0.0300001,-0.14 c0,0 0.34,-0.86 0.34,-0.86 c0,0 1.98,0 1.98,0 c0,0 0.4,1.02 0.4,1.02 c0.02,0.04 0.04,0.0899997 0.04,0.12 c0,0.2 -0.38,0.2 -0.57,0.2 c0,0 0,0.25 0,0.25 c0,0 1.97,0 1.97,0 c0,0 0,-0.25 0,-0.25 c0,0 -0.14,0 -0.14,0 c-0.47,0 -0.52,-0.0699997 -0.59,-0.27 c0,0 -1.7,-4.29 -1.7,-4.29 z m-0.4,0.71 c0,0 0.89,2.26 0.89,2.26 c0,0 -1.78,0 -1.78,0 c0,0 0.89,-2.26 0.89,-2.26 z"/>
	<path transform="translate(7.03,0.23)" d="M6.27,10 c0,0 -6.09,0 -6.09,0 c0,0 -0.18,2.24 -0.18,2.24 c0,0 0.24,0 0.24,0 c0.14,-1.61 0.29,-1.94 1.8,-1.94 c0.18,0 0.44,0 0.54,0.02 c0.21,0.04 0.21,0.15 0.21,0.38 c0,0 0,5.25 0,5.25 c0,0.34 0,0.48 -1.05,0.48 c0,0 -0.4,0 -0.4,0 c0,0 0,0.31 0,0.31 c0.41,-0.0299997 1.42,-0.0299997 1.88,-0.0299997 c0.46,0 1.49,0 1.9,0.0299997 c0,0 0,-0.31 0,-0.31 c0,0 -0.4,0 -0.4,0 c-1.05,0 -1.05,-0.14 -1.05,-0.48 c0,0 0,-5.25 0,-5.25 c0,-0.2 0,-0.34 0.18,-0.38 c0.11,-0.02 0.38,-0.02 0.57,-0.02 c1.5,0 1.65,0.33 1.79,1.94 c0,0 0.25,0 0.25,0 c0,0 -0.19,-2.24 -0.19,-2.24 z"/>
	<path transform="translate(12.5,2.45)" d="M6.16,14.2 c0,0 -0.25,0 -0.25,0 c-0.25,1.53 -0.48,2.26 -2.19,2.26 c0,0 -1.32,0 -1.32,0 c-0.47,0 -0.49,-0.0700002 -0.49,-0.4 c0,0 0,-2.66 0,-2.66 c0,0 0.89,0 0.89,0 c0.97,0 1.08,0.32 1.08,1.17 c0,0 0.25,0 0.25,0 c0,0 0,-2.64 0,-2.64 c0,0 -0.25,0 -0.25,0 c0,0.85 -0.11,1.16 -1.08,1.16 c0,0 -0.89,0 -0.89,0 c0,0 0,-2.39 0,-2.39 c0,-0.33 0.02,-0.4 0.49,-0.4 c0,0 1.28,0 1.28,0 c1.53,0 1.79,0.55 1.95,1.94 c0,0 0.25,0 0.25,0 c0,0 -0.28,-2.24 -0.28,-2.24 c0,0 -5.6,0 -5.6,0 c0,0 0,0.3 0,0.3 c0,0 0.23,0 0.23,0 c0.77,0 0.79,0.11 0.79,0.47 c0,0 0,5.22 0,5.22 c0,0.36 -0.02,0.47 -0.79,0.47 c0,0 -0.23,0 -0.23,0 c0,0 0,0.31 0,0.31 c0,0 5.74,0 5.74,0 c0,0 0.42,-2.57 0.42,-2.57 z"/>
	<path transform="translate(17.91,0.17)" d="M3.76,12.95 c0,0 1.37,-2 1.37,-2 c0.21,-0.32 0.55,-0.64 1.44,-0.65 c0,0 0,-0.3 0,-0.3 c0,0 -2.38,0 -2.38,0 c0,0 0,0.3 0,0.3 c0.4,0.00999999 0.62,0.23 0.62,0.46 c0,0.1 -0.02,0.12 -0.0900002,0.23 c0,0 -1.14,1.68 -1.14,1.68 c0,0 -1.28,-1.92 -1.28,-1.92 c-0.02,-0.03 -0.0699999,-0.11 -0.0699999,-0.15 c0,-0.12 0.22,-0.29 0.64,-0.3 c0,0 0,-0.3 0,-0.3 c-0.34,0.03 -1.07,0.03 -1.45,0.03 c-0.31,0 -0.93,-0.01 -1.3,-0.03 c0,0 0,0.3 0,0.3 c0,0 0.19,0 0.19,0 c0.55,0 0.74,0.07 0.93,0.35 c0,0 1.83,2.77 1.83,2.77 c0,0 -1.63,2.41 -1.63,2.41 c-0.14,0.2 -0.44,0.66 -1.44,0.66 c0,0 0,0.31 0,0.31 c0,0 2.38,0 2.38,0 c0,0 0,-0.31 0,-0.31 c-0.46,-0.00999975 -0.63,-0.28 -0.63,-0.46 c0,-0.0900002 0.03,-0.13 0.1,-0.24 c0,0 1.41,-2.09 1.41,-2.09 c0,0 1.58,2.38 1.58,2.38 c0.02,0.04 0.0499997,0.0799999 0.0499997,0.11 c0,0.12 -0.22,0.29 -0.65,0.3 c0,0 0,0.31 0,0.31 c0.35,-0.0300002 1.08,-0.0300002 1.45,-0.0300002 c0.42,0 0.88,0.0100002 1.3,0.0300002 c0,0 0,-0.31 0,-0.31 c0,0 -0.19,0 -0.19,0 c-0.52,0 -0.73,-0.0499997 -0.94,-0.36 c0,0 -2.1,-3.18 -2.1,-3.18 z"/>
</g>
</svg>
